<svg width="28" height="24" viewBox="0 0 28 24" fill="none" xmlns="http://www.w3.org/2000/svg">
<path d="M16.1028 10.0475C17.3956 11.2028 17.3956 13.0784 16.1028 14.2357C14.8101 15.3911 12.7114 15.3911 11.4164 14.2357C10.1236 13.0804 10.1236 11.2048 11.4164 10.0475C12.7114 8.89016 14.809 8.89016 16.1028 10.0475Z" stroke="#027373" stroke-width="1.5" stroke-linecap="round" stroke-linejoin="round"/>
<path d="M3.8241 12.1391C3.8241 11.4889 3.9919 10.8457 4.31648 10.2527C5.98904 7.1971 9.68523 5.23272 13.7601 5.23272C17.835 5.23272 21.5312 7.1971 23.2037 10.2527C23.5283 10.8457 23.6961 11.4889 23.6961 12.1391C23.6961 12.7893 23.5283 13.4326 23.2037 14.0256C21.5312 17.0812 17.835 19.0456 13.7601 19.0456C9.68523 19.0456 5.98904 17.0812 4.31648 14.0256C3.9919 13.4326 3.8241 12.7893 3.8241 12.1391V12.1391Z" stroke="#027373" stroke-width="1.5" stroke-linecap="round" stroke-linejoin="round"/>
</svg>
